<svg width="180" height="180" viewBox="0 0 180 180" fill="none" xmlns="http://www.w3.org/2000/svg">
<path fill-rule="evenodd" clip-rule="evenodd" d="M58 0C56.8954 0 56 0.895436 56 2.00001V56L2 56C0.895429 56 0 56.8954 0 58C0 59.1046 0.895438 60 2.00001 60L56 60V120H2C0.895429 120 0 120.895 0 122C0 123.105 0.895438 124 2.00001 124H56V178C56 179.105 56.8954 180 58 180C59.1046 180 60 179.105 60 178V124L120 124V178C120 179.105 120.895 180 122 180C123.105 180 124 179.105 124 178V124H178C179.105 124 180 123.105 180 122C180 120.895 179.105 120 178 120H124V60L178 60C179.105 60 180 59.1046 180 58C180 56.8954 179.105 56 178 56L124 56V2C124 0.895431 123.105 0 122 0C120.895 0 120 0.895436 120 2.00001V56H60V2C60 0.895431 59.1046 0 58 0ZM60 60V120L120 120V60H60Z" fill="#413C69"/>
</svg>
