<svg width="144" height="45" viewBox="0 0 144 45" fill="none" xmlns="http://www.w3.org/2000/svg">
<path d="M7.54081 10.868H4.62881V18.2H0.44281V0H4.62881V7.358H7.64481L12.4288 0H16.8748L10.9208 8.788L17.0568 18.2H12.2728L7.54081 10.868Z" fill="#413C69"/>
<path d="M26.478 4.004C27.9686 4.004 29.2686 4.29867 30.378 4.888C31.4873 5.47733 32.3453 6.318 32.952 7.41C33.5586 8.502 33.862 9.776 33.862 11.232C33.862 12.6533 33.576 13.91 33.004 15.002C32.432 16.0767 31.626 16.9173 30.586 17.524C29.546 18.1133 28.35 18.408 26.998 18.408C25.2126 18.408 23.8173 17.8447 22.812 16.718V23.244H18.756V11.258C18.756 9.81933 19.0766 8.554 19.718 7.462C20.3593 6.37 21.2606 5.52067 22.422 4.914C23.5833 4.30733 24.9353 4.004 26.478 4.004ZM26.296 15.08C27.3533 15.08 28.2113 14.7247 28.87 14.014C29.5286 13.3033 29.858 12.376 29.858 11.232C29.858 10.0707 29.5286 9.13467 28.87 8.424C28.2113 7.696 27.3533 7.332 26.296 7.332C25.2386 7.332 24.3806 7.68734 23.722 8.398C23.0806 9.10867 22.76 10.0447 22.76 11.206C22.76 12.3673 23.0806 13.3033 23.722 14.014C24.3633 14.7247 25.2213 15.08 26.296 15.08Z" fill="#413C69"/>
<path d="M43.6879 15.158C44.4159 15.158 45.0573 15.054 45.6119 14.846C46.1839 14.6207 46.7126 14.274 47.1979 13.806L49.3559 16.146C48.0386 17.654 46.1146 18.408 43.5839 18.408C42.0066 18.408 40.6113 18.1047 39.3979 17.498C38.1846 16.874 37.2486 16.016 36.5899 14.924C35.9313 13.832 35.6019 12.5927 35.6019 11.206C35.6019 9.83667 35.9226 8.606 36.5639 7.514C37.2226 6.40467 38.1153 5.54667 39.2419 4.94C40.3859 4.316 41.6686 4.004 43.0899 4.004C44.4246 4.004 45.6379 4.29 46.7299 4.862C47.8219 5.41667 48.6886 6.23134 49.3299 7.306C49.9886 8.36334 50.3179 9.62 50.3179 11.076L39.9699 13.078C40.2646 13.7713 40.7239 14.2913 41.3479 14.638C41.9893 14.9847 42.7693 15.158 43.6879 15.158ZM43.0899 7.072C42.0673 7.072 41.2353 7.40133 40.5939 8.06C39.9526 8.71867 39.6146 9.62867 39.5799 10.79L46.3919 9.464C46.2013 8.736 45.8113 8.15534 45.2219 7.722C44.6326 7.28867 43.9219 7.072 43.0899 7.072Z" fill="#413C69"/>
<path d="M59.7783 18.408C58.2876 18.408 56.9443 18.1047 55.7483 17.498C54.5696 16.874 53.6423 16.016 52.9663 14.924C52.3076 13.832 51.9783 12.5927 51.9783 11.206C51.9783 9.81933 52.3076 8.58 52.9663 7.488C53.6423 6.396 54.5696 5.54667 55.7483 4.94C56.9443 4.316 58.2876 4.004 59.7783 4.004C61.2516 4.004 62.5343 4.316 63.6263 4.94C64.7356 5.54667 65.5416 6.422 66.0443 7.566L62.8983 9.256C62.1703 7.97334 61.1216 7.332 59.7523 7.332C58.6949 7.332 57.8196 7.67867 57.1263 8.372C56.4329 9.06534 56.0863 10.01 56.0863 11.206C56.0863 12.402 56.4329 13.3467 57.1263 14.04C57.8196 14.7333 58.6949 15.08 59.7523 15.08C61.1389 15.08 62.1876 14.4387 62.8983 13.156L66.0443 14.872C65.5416 15.9813 64.7356 16.848 63.6263 17.472C62.5343 18.096 61.2516 18.408 59.7783 18.408Z" fill="#413C69"/>
<path d="M86.397 4.004C88.1476 4.004 89.5343 4.524 90.557 5.564C91.597 6.58667 92.117 8.12934 92.117 10.192V18.2H88.061V10.816C88.061 9.70667 87.827 8.88334 87.359 8.346C86.9083 7.79134 86.2583 7.514 85.409 7.514C84.4557 7.514 83.7016 7.826 83.147 8.45C82.5923 9.05667 82.315 9.96667 82.315 11.18V18.2H78.259V10.816C78.259 8.61467 77.375 7.514 75.607 7.514C74.671 7.514 73.9256 7.826 73.371 8.45C72.8163 9.05667 72.539 9.96667 72.539 11.18V18.2H68.483V4.212H72.357V5.824C72.877 5.23467 73.5097 4.784 74.255 4.472C75.0176 4.16 75.8496 4.004 76.751 4.004C77.739 4.004 78.6317 4.20333 79.429 4.602C80.2263 4.98333 80.8676 5.54667 81.353 6.292C81.925 5.564 82.6443 5.00067 83.511 4.602C84.395 4.20333 85.357 4.004 86.397 4.004Z" fill="#413C69"/>
<path d="M109.458 4.212V18.2H105.584V16.562C105.064 17.1687 104.422 17.628 103.66 17.94C102.914 18.252 102.117 18.408 101.268 18.408C99.4302 18.408 97.9656 17.8793 96.8736 16.822C95.7989 15.7647 95.2616 14.196 95.2616 12.116V4.212H99.3176V11.518C99.3176 13.7713 100.262 14.898 102.152 14.898C103.14 14.898 103.928 14.586 104.518 13.962C105.107 13.3207 105.402 12.376 105.402 11.128V4.212H109.458Z" fill="#413C69"/>
<path d="M119.485 12.896H117.379V18.2H113.323V4.212H117.379V9.646H119.563L123.359 4.212H127.675L122.787 10.92L128.013 18.2H123.229L119.485 12.896Z" fill="#413C69"/>
<path d="M143.557 4.212V18.2H139.683V16.562C139.163 17.1687 138.522 17.628 137.759 17.94C137.014 18.252 136.217 18.408 135.367 18.408C133.53 18.408 132.065 17.8793 130.973 16.822C129.899 15.7647 129.361 14.196 129.361 12.116V4.212H133.417V11.518C133.417 13.7713 134.362 14.898 136.251 14.898C137.239 14.898 138.028 14.586 138.617 13.962C139.207 13.3207 139.501 12.376 139.501 11.128V4.212H143.557Z" fill="#413C69"/>
<path d="M57.2327 26V44.2H53.0207V36.738H44.7527V44.2H40.5407V26H44.7527V33.176H53.0207V26H57.2327Z" fill="#413C69"/>
<path d="M68.0327 44.408C66.5593 44.408 65.2333 44.1047 64.0547 43.498C62.8933 42.874 61.9833 42.016 61.3247 40.924C60.666 39.832 60.3367 38.5927 60.3367 37.206C60.3367 35.8193 60.666 34.58 61.3247 33.488C61.9833 32.396 62.8933 31.5467 64.0547 30.94C65.2333 30.316 66.5593 30.004 68.0327 30.004C69.506 30.004 70.8233 30.316 71.9847 30.94C73.146 31.5467 74.056 32.396 74.7147 33.488C75.3733 34.58 75.7027 35.8193 75.7027 37.206C75.7027 38.5927 75.3733 39.832 74.7147 40.924C74.056 42.016 73.146 42.874 71.9847 43.498C70.8233 44.1047 69.506 44.408 68.0327 44.408ZM68.0327 41.08C69.0727 41.08 69.922 40.7333 70.5807 40.04C71.2567 39.3293 71.5947 38.3847 71.5947 37.206C71.5947 36.0273 71.2567 35.0913 70.5807 34.398C69.922 33.6873 69.0727 33.332 68.0327 33.332C66.9927 33.332 66.1347 33.6873 65.4587 34.398C64.7827 35.0913 64.4447 36.0273 64.4447 37.206C64.4447 38.3847 64.7827 39.3293 65.4587 40.04C66.1347 40.7333 66.9927 41.08 68.0327 41.08Z" fill="#413C69"/>
<path d="M91.7053 30.212V44.2H87.6493V33.54H83.2293L83.0993 36.01C83.0299 37.8473 82.8566 39.3727 82.5793 40.586C82.3019 41.7993 81.8513 42.7527 81.2273 43.446C80.6033 44.1393 79.7366 44.486 78.6273 44.486C78.0379 44.486 77.3359 44.382 76.5213 44.174L76.7293 40.846C77.0066 40.8807 77.2059 40.898 77.3273 40.898C77.9339 40.898 78.3846 40.6813 78.6793 40.248C78.9912 39.7973 79.1993 39.234 79.3033 38.558C79.4072 37.8647 79.4853 36.9547 79.5373 35.828L79.7453 30.212H91.7053Z" fill="#413C69"/>
<path d="M109.412 30.212V44.2H105.538V42.562C105.018 43.1687 104.376 43.628 103.614 43.94C102.868 44.252 102.071 44.408 101.222 44.408C99.3843 44.408 97.9197 43.8793 96.8277 42.822C95.753 41.7647 95.2157 40.196 95.2157 38.116V30.212H99.2717V37.518C99.2717 39.7713 100.216 40.898 102.106 40.898C103.094 40.898 103.882 40.586 104.472 39.962C105.061 39.3207 105.356 38.376 105.356 37.128V30.212H109.412Z" fill="#413C69"/>
<path d="M119.44 38.896H117.334V44.2H113.278V30.212H117.334V35.646H119.518L123.314 30.212H127.63L122.742 36.92L127.968 44.2H123.184L119.44 38.896Z" fill="#413C69"/>
<path d="M143.511 30.212V44.2H139.637V42.562C139.117 43.1687 138.476 43.628 137.713 43.94C136.968 44.252 136.171 44.408 135.321 44.408C133.484 44.408 132.019 43.8793 130.927 42.822C129.853 41.7647 129.315 40.196 129.315 38.116V30.212H133.371V37.518C133.371 39.7713 134.316 40.898 136.205 40.898C137.193 40.898 137.982 40.586 138.571 39.962C139.161 39.3207 139.455 38.376 139.455 37.128V30.212H143.511Z" fill="#413C69"/>
<circle cx="25.4428" cy="37" r="5.5" stroke="#A7C5EB" stroke-width="3"/>
<path d="M0.886081 30.4433C1.47711 29.8522 2.43535 29.8522 3.02638 30.4433L13.9995 41.4164C14.5906 42.0075 14.5906 42.9657 13.9995 43.5567C13.4085 44.1478 12.4503 44.1478 11.8592 43.5567L0.886081 32.5836C0.295053 31.9925 0.295053 31.0343 0.886081 30.4433Z" fill="#A7C5EB"/>
<path d="M0.886086 43.5567C0.295058 42.9657 0.295058 42.0074 0.886086 41.4164L11.8592 30.4433C12.4503 29.8522 13.4085 29.8522 13.9995 30.4433C14.5906 31.0343 14.5906 31.9925 13.9995 32.5836L3.02639 43.5567C2.43536 44.1478 1.47711 44.1478 0.886086 43.5567Z" fill="#A7C5EB"/>
</svg>
